<?xml version="1.0"?>
<svg xmlns="http://www.w3.org/2000/svg" height="512px" viewBox="0 0 512 512" width="512px" class=""><g><path d="m345.980469 482.71875c35.910156-7.265625 60.609375-31.003906 85.371093-56.265625 18.871094-19.253906 44.550782-40.785156 50.265626-68.335937 1.578124-7.617188 7.40625-10.621094 13.328124-10.25 10.980469-28.519532 17.054688-59.480469 17.054688-91.867188 0-141.382812-114.617188-256-256-256-51.042969 0-98.558594 15-138.488281 40.75 5.535156 4.976562 8.085937 13.972656 1.871093 21.253906-32.296874 37.90625-85.167968 71.027344-92.308593 123.878906-1.464844 10.859376-11.828125 12.4375-19.484375 8.164063-4.933594 19.84375-7.589844 40.582031-7.589844 61.953125 0 90.457031 46.953125 169.886719 117.777344 215.429688 5.828125-6.242188 17.46875-7.972657 23.710937 1.332031 3.664063 5.464843 13.578125 7.757812 19.394531 9.59375 8.253907 2.605469 16.710938 4.519531 25.007813 6.984375 7.875 2.339844 10.71875 9.128906 9.90625 15.464844 19.3125 4.660156 39.457031 7.195312 60.203125 7.195312 28.027344 0 54.96875-4.5625 80.207031-12.886719-1.816406-6.871093.8125-14.585937 9.773438-16.394531zm0 0" fill="#366db6" data-original="#366DB6" class=""/><path d="m353.101562 84.746094c0 46.800781 79.449219 127.117187 79.449219 127.117187s79.449219-80.316406 79.449219-127.117187c0-46.804688-35.566406-84.746094-79.449219-84.746094-43.882812 0-79.449219 37.941406-79.449219 84.746094zm0 0" fill="#ebba16" data-original="#EBBA16" class="active-path" style="fill:#EBBA16" data-old_color="#61B872"/><path d="m0 384.882812c0 46.804688 79.449219 127.117188 79.449219 127.117188s79.449219-80.3125 79.449219-127.117188c0-46.804687-35.566407-84.746093-79.449219-84.746093-43.882813 0-79.449219 37.941406-79.449219 84.746093zm0 0" fill="#dd352e" data-original="#DD352E" class=""/><path d="m496.261719 344.550781-22.183594-22.183593c-7.328125-7.132813-18.988281-9.480469-35.144531-9.480469-39.421875 0-52.558594 66.847656-52.558594 66.847656 0 26.742187-26.078125 37.449219-26.078125 37.449219s-65.992187 16.613281-47.402344 47.402344l21.148438 35.25c75.0625-24.003907 135.074219-81.671876 162.21875-155.285157zm0 0" fill="#61b872" data-original="#61B872" class=""/><path d="m467.863281 79.449219c0 19.5-15.808593 35.308593-35.3125 35.308593-19.5 0-35.308593-15.808593-35.308593-35.308593 0-19.503907 15.808593-35.3125 35.308593-35.3125 19.503907 0 35.3125 15.808593 35.3125 35.3125zm0 0" fill="#fff" data-original="#FFF" class=""/><path d="m114.757812 379.585938c0 19.5-15.808593 35.3125-35.308593 35.3125-19.503907 0-35.3125-15.8125-35.3125-35.3125s15.808593-35.308594 35.3125-35.308594c19.5 0 35.308593 15.808594 35.308593 35.308594zm0 0" fill="#fff" data-original="#FFF" class=""/><path d="m298.679688 289.90625c-1.382813-3.988281-3.0625-7.882812-4.941407-11.667969-22.96875-46.167969-54.871093-56.425781-77.472656-56.957031-34.097656-.804688-59.574219-36.953125-43.996094-68.792969 1.015625-2.066406 2.179688-4.070312 2.96875-6.242187 6.726563-18.652344 2.574219-48.269532-3.179687-66.605469-3.335938-10.636719-8.640625-20.910156-16.957032-28.511719-4.292968-3.929687-9.261718-7.015625-14.664062-9.171875-3.484375-1.386719-15.332031-6.003906-18.777344-3.875-57.246094 35.363281-99.457031 92.65625-115.039062 160.148438 10.929687 9.394531 25.421875 13.535156 39.855468 12.871093 29.113282-1.347656 89.757813.664063 89.757813 40.757813 0 25.804687-9.417969 45.257813-19.039063 58.449219 24.832032 14.324218 41.703126 42.34375 41.703126 74.574218 0 24.707032-22.125 58.667969-43.027344 85.308594 5.570312 3.65625 11.28125 7.097656 17.125 10.3125 11.625 6.382813 23.753906 11.863282 36.238281 16.355469 4.835937 1.742187 32.863281 12.722656 32.75 5.855469-.132813-8.070313-.769531-16.128906-1.90625-24.117188-.839844-5.90625-1.953125-11.910156-.972656-17.796875 1.273437-7.671875 5.984375-14.363281 11.433593-19.914062 40.730469-41.492188 112.460938-81.1875 88.140626-150.980469zm0 0" fill="#61b872" data-original="#61B872" class=""/><g fill="#fff"><path d="m185.371094 353.101562c-1.570313 0-3.160156-.421874-4.601563-1.285156-4.15625-2.542968-5.472656-7.972656-2.929687-12.140625.222656-.359375 5.570312-9.082031 15.324218-22.457031 2.878907-3.925781 8.394532-4.808594 12.332032-1.933594 3.9375 2.871094 4.804687 8.386719 1.933594 12.324219-9.285157 12.730469-14.476563 21.175781-14.527344 21.265625-1.652344 2.726562-4.558594 4.226562-7.53125 4.226562zm0 0" data-original="#000000"/><path d="m228.960938 295.46875c-2.066407 0-4.140626-.722656-5.816407-2.199219-3.664062-3.210937-4.027343-8.792969-.8125-12.457031 10.609375-12.074219 21.574219-23.363281 32.582031-33.5625 3.566407-3.300781 9.164063-3.113281 12.472657.496094 3.3125 3.574218 3.097656 9.164062-.484375 12.472656-10.566406 9.765625-21.097656 20.621094-31.3125 32.246094-1.738282 1.980468-4.175782 3.003906-6.628906 3.003906zm67.503906-61.875c-2.769532 0-5.507813-1.296875-7.21875-3.742188-2.808594-3.988281-1.855469-9.496093 2.136718-12.304687 13.628907-9.605469 27.425782-17.628906 41.003907-23.851563 4.429687-2.023437 9.671875-.097656 11.703125 4.34375 2.03125 4.429688.089844 9.675782-4.34375 11.703126-12.597656 5.773437-25.449219 13.261718-38.195313 22.238281-1.554687 1.085937-3.328125 1.613281-5.085937 1.613281zm0 0" data-original="#000000"/><path d="m379.710938 196.582031c-4.203126 0-7.917969-3-8.679688-7.273437-.855469-4.792969 2.339844-9.375 7.140625-10.242188 9.296875-1.667968 18.691406-2.515625 27.898437-2.515625 4.871094 0 8.828126 3.945313 8.828126 8.828125 0 4.882813-3.957032 8.828125-8.828126 8.828125-8.175781 0-16.519531.75-24.796874 2.234375-.53125.097656-1.050782.140625-1.5625.140625zm0 0" data-original="#000000"/></g></g> </svg>
